<svg width="20" height="21" viewBox="0 0 20 21" fill="none" xmlns="http://www.w3.org/2000/svg">
<path id="Icon" d="M17.7929 0.297852C18.3782 0.297852 18.9396 0.530376 19.3535 0.944272C19.7674 1.35817 19.9999 1.91953 19.9999 2.50487V17.954C19.9999 18.5393 19.7674 19.1007 19.3535 19.5146C18.9396 19.9285 18.3782 20.161 17.7929 20.161H2.34374C1.7584 20.161 1.19704 19.9285 0.783139 19.5146C0.369243 19.1007 0.136719 18.5393 0.136719 17.954V2.50487C0.136719 1.91953 0.369243 1.35817 0.783139 0.944272C1.19704 0.530376 1.7584 0.297852 2.34374 0.297852H17.7929ZM17.2411 17.4022V11.5536C17.2411 10.5995 16.8621 9.68452 16.1874 9.00987C15.5128 8.33522 14.5978 7.9562 13.6437 7.9562C12.7057 7.9562 11.6132 8.53003 11.0835 9.39077V8.16587H8.00474V17.4022H11.0835V11.9619C11.0835 11.1122 11.7677 10.417 12.6174 10.417C13.0271 10.417 13.4201 10.5798 13.7098 10.8695C13.9996 11.1593 14.1623 11.5522 14.1623 11.9619V17.4022H17.2411ZM4.41833 6.43336C4.91002 6.43336 5.38156 6.23804 5.72924 5.89037C6.07691 5.5427 6.27223 5.07115 6.27223 4.57947C6.27223 3.5532 5.4446 2.71454 4.41833 2.71454C3.92372 2.71454 3.44937 2.91102 3.09963 3.26076C2.74989 3.6105 2.5534 4.08486 2.5534 4.57947C2.5534 5.60573 3.39207 6.43336 4.41833 6.43336ZM5.95221 17.4022V8.16587H2.89549V17.4022H5.95221Z" fill="black"/>
</svg>
